<svg width="20" height="20" viewBox="0 0 20 20" fill="none" xmlns="http://www.w3.org/2000/svg">
<path d="M10 18.3327C14.2758 18.3327 17.5 16.7202 17.5 14.5827V5.83268C17.5 5.79018 17.48 5.75185 17.4725 5.71102C17.4858 5.61352 17.5 5.51602 17.5 5.41602C17.5 3.27852 14.2758 1.66602 10 1.66602C5.72417 1.66602 2.5 3.27852 2.5 5.41602V14.5827C2.5 16.7202 5.72417 18.3327 10 18.3327ZM10 3.33268C13.5608 3.33268 15.8333 4.56602 15.8333 5.41602C15.8316 5.46057 15.8246 5.50476 15.8125 5.54768C15.8092 5.55602 15.8025 5.56268 15.8 5.57018C15.5717 6.27685 13.8917 7.22018 11.22 7.44768L11.1783 7.45018C10.8042 7.48185 10.4117 7.49935 10 7.49935C6.43917 7.49935 4.16667 6.26602 4.16667 5.41602C4.16667 4.56602 6.43917 3.33268 10 3.33268Z" fill="grey"/>
</svg>
